<?xml version="1.0" standalone="no"?>
<!DOCTYPE svg PUBLIC "-//W3C//DTD SVG 20010904//EN"
 "http://www.w3.org/TR/2001/REC-SVG-20010904/DTD/svg10.dtd">
<svg version="1.0" xmlns="http://www.w3.org/2000/svg"
 width="2200.000000pt" height="1100.000000pt" viewBox="0 0 2200.000000 1100.000000"
 preserveAspectRatio="xMidYMid meet">

<g transform="translate(0.000000,1100.000000) scale(0.100000,-0.100000)"
fill="#000000" stroke="none">
<path d="M9036 8867 c-279 -162 -512 -301 -517 -308 -5 -8 -9 -763 -9 -1726
l0 -1712 33 -24 c17 -14 472 -278 1010 -587 770 -443 982 -561 1001 -556 27 7
1983 1130 2006 1152 13 13 16 94 20 571 l5 557 465 267 c256 147 475 277 488
288 l22 19 0 590 c0 547 -1 591 -17 610 -10 11 -243 149 -518 307 -408 234
-505 286 -530 283 -39 -5 -991 -551 -1027 -589 l-28 -29 0 -548 0 -547 -401
-230 c-220 -126 -404 -231 -409 -233 -6 -2 -10 385 -10 1060 l0 1065 -22 20
c-34 31 -998 584 -1027 589 -20 3 -140 -61 -535 -289z m923 -109 c212 -121
394 -227 404 -233 16 -11 -32 -41 -370 -236 -213 -122 -397 -228 -408 -235
-18 -11 -63 12 -424 220 -222 128 -403 236 -403 240 1 9 791 466 806 466 5 0
183 -100 395 -222z m2957 -565 c217 -125 394 -230 394 -233 0 -5 -714 -421
-802 -467 -8 -4 -818 458 -818 467 0 12 806 469 819 464 7 -2 191 -106 407
-231z m-3829 -60 l393 -227 0 -1093 c0 -896 2 -1099 14 -1126 11 -29 68 -63
490 -302 l476 -270 0 -467 c0 -258 -3 -468 -7 -468 -5 0 -408 231 -898 513
l-890 513 -3 1583 c-2 1502 -1 1583 15 1576 10 -3 194 -108 410 -232z m1371
-789 l-3 -1025 -399 -230 c-219 -126 -403 -229 -407 -229 -5 0 -8 449 -7 1022
l3 1022 400 232 c220 128 403 232 408 233 4 1 6 -461 5 -1025z m1562 238 c206
-118 381 -220 388 -227 9 -8 12 -111 10 -473 l-3 -462 -405 233 -405 233 -3
468 -2 467 22 -12 c13 -7 192 -109 398 -227z m1380 -229 l-1 -468 -400 -230
c-221 -126 -405 -232 -410 -233 -6 -2 -8 184 -7 463 l3 467 405 233 c223 129
406 234 408 235 1 0 2 -210 2 -467z m-1474 -835 c222 -128 404 -236 404 -240
0 -4 -393 -231 -872 -504 -480 -274 -882 -503 -893 -510 -18 -12 -61 10 -425
216 -223 126 -403 233 -401 237 3 6 1764 1027 1779 1032 2 1 186 -104 408
-231z m494 -846 l0 -467 -890 -513 c-489 -281 -894 -512 -900 -512 -7 0 -9
154 -8 467 l3 468 895 512 c492 281 896 512 898 512 1 1 2 -209 2 -467z"/>
<path d="M5560 2930 l0 -1300 615 0 615 0 -2 193 -3 192 -397 3 -398 2 0 1105
0 1105 -215 0 -215 0 0 -1300z"/>
<path d="M16010 2930 l0 -1300 205 0 205 0 0 1300 0 1300 -205 0 -205 0 0
-1300z"/>
<path d="M7580 3393 c-19 -2 -39 -9 -44 -14 -6 -5 -20 -9 -33 -9 -13 0 -31 -4
-41 -9 -9 -5 -48 -24 -87 -42 -125 -59 -222 -135 -293 -229 -15 -19 -35 -44
-44 -54 -10 -11 -18 -26 -18 -33 0 -7 -4 -13 -10 -13 -5 0 -10 -6 -10 -14 0
-8 -4 -16 -8 -18 -4 -1 -21 -34 -36 -73 -15 -38 -32 -78 -37 -87 -5 -10 -9
-28 -9 -41 0 -13 -4 -27 -9 -32 -32 -34 -32 -436 0 -470 5 -5 9 -19 9 -31 0
-13 4 -25 9 -28 4 -3 11 -19 14 -35 8 -40 74 -175 102 -207 6 -6 25 -31 44
-54 127 -156 289 -253 501 -300 85 -18 371 -5 390 19 3 3 31 15 63 25 31 11
57 22 57 25 0 3 13 12 30 19 38 17 160 133 160 153 0 12 2 12 10 -1 5 -8 10
-59 10 -112 l0 -98 200 0 200 0 -2 868 -3 867 -197 3 -198 2 0 -92 c0 -51 -3
-103 -6 -115 -6 -21 -9 -19 -42 25 -19 27 -47 56 -61 65 -59 37 -66 42 -71 47
-13 13 -135 70 -149 70 -10 0 -22 5 -29 12 -13 13 -289 21 -362 11z m405 -398
c89 -41 140 -82 203 -161 88 -112 126 -319 87 -481 -15 -62 -51 -151 -66 -163
-3 -3 -12 -16 -19 -29 -29 -56 -122 -132 -205 -170 -16 -8 -41 -19 -54 -25
-36 -16 -246 -14 -303 4 -27 8 -48 18 -48 22 0 4 -9 8 -20 8 -11 0 -20 5 -20
10 0 6 -5 10 -10 10 -22 0 -145 123 -162 162 -7 15 -16 28 -20 28 -5 0 -8 9
-8 20 0 11 -4 20 -10 20 -5 0 -10 11 -10 25 0 14 -4 25 -9 25 -23 0 -34 269
-14 345 15 59 46 133 66 155 9 11 17 24 17 28 0 16 118 132 134 132 9 0 16 4
16 8 0 5 19 16 43 26 23 10 51 22 62 27 30 13 91 17 188 13 74 -4 101 -10 162
-39z"/>
<path d="M10865 3393 c-22 -2 -44 -9 -49 -14 -6 -5 -20 -9 -32 -9 -13 0 -26
-4 -29 -10 -3 -5 -13 -10 -21 -10 -20 0 -99 -38 -166 -80 -83 -52 -216 -183
-240 -236 -6 -13 -15 -24 -20 -24 -4 0 -8 -6 -8 -14 0 -8 -3 -16 -7 -18 -11
-4 -53 -87 -53 -103 0 -7 -3 -15 -7 -17 -19 -8 -55 -152 -64 -253 -17 -189 10
-378 71 -498 11 -22 20 -45 20 -53 0 -8 5 -14 10 -14 6 0 10 -6 10 -13 0 -7 8
-22 18 -33 11 -11 21 -25 23 -31 17 -44 191 -223 217 -223 5 0 17 -8 28 -18
10 -10 34 -25 52 -32 17 -8 32 -18 32 -21 0 -4 10 -9 23 -12 21 -5 68 -21 112
-38 41 -16 93 -22 230 -26 133 -4 188 2 237 28 10 5 24 9 33 9 20 0 86 32 109
53 11 9 24 17 29 17 5 0 17 8 26 18 9 10 24 21 33 25 10 3 30 24 45 46 45 64
53 55 53 -59 l0 -100 200 0 200 0 0 870 0 870 -194 0 c-168 0 -195 -2 -200
-16 -3 -9 -6 -56 -6 -105 0 -94 -10 -111 -40 -68 -26 38 -59 68 -118 107 -54
36 -69 43 -137 72 -16 7 -39 17 -50 23 -21 11 -298 19 -370 10z m354 -373 c15
-7 48 -21 81 -34 41 -16 180 -144 180 -166 0 -5 4 -10 8 -10 5 0 17 -19 27
-42 9 -24 21 -51 26 -60 5 -10 9 -26 9 -36 0 -10 5 -23 11 -29 15 -15 15 -250
-1 -299 -32 -99 -66 -169 -96 -199 -13 -13 -24 -28 -24 -32 0 -5 -12 -17 -26
-27 -14 -11 -37 -30 -52 -43 -15 -13 -33 -23 -39 -23 -7 0 -13 -3 -13 -8 0 -4
-15 -13 -32 -20 -18 -8 -44 -19 -57 -25 -31 -16 -270 -16 -302 -1 -91 43 -119
58 -119 66 0 4 -5 8 -10 8 -21 0 -120 97 -120 117 0 7 -4 13 -8 13 -11 0 -38
58 -65 135 -18 50 -21 83 -21 203 1 95 5 147 12 154 7 7 12 19 12 28 0 22 56
134 75 150 8 7 15 16 15 21 0 10 36 46 81 81 31 23 61 38 154 79 11 4 36 10
55 13 49 6 219 -4 239 -14z"/>
<path d="M14730 3393 c-19 -2 -39 -9 -44 -14 -6 -5 -20 -9 -33 -9 -13 0 -31
-4 -41 -9 -9 -5 -46 -23 -82 -39 -142 -64 -278 -178 -356 -297 -21 -33 -42
-61 -46 -63 -5 -2 -8 -12 -8 -23 0 -10 -4 -19 -10 -19 -5 0 -10 -9 -10 -20 0
-11 -4 -20 -10 -20 -5 0 -10 -9 -10 -19 0 -11 -4 -23 -10 -26 -5 -3 -10 -16
-10 -29 0 -12 -4 -26 -9 -31 -20 -23 -44 -229 -38 -335 6 -111 22 -213 38
-242 5 -10 9 -25 9 -33 0 -8 4 -23 9 -33 5 -9 25 -51 46 -92 20 -41 60 -103
88 -138 54 -66 163 -162 184 -162 7 0 13 -4 13 -9 0 -18 192 -101 235 -101 13
0 26 -4 29 -9 11 -17 91 -24 281 -24 180 -1 223 3 270 23 11 5 45 16 75 26 30
9 57 20 60 23 3 3 15 12 28 19 12 6 32 18 45 25 12 6 24 14 27 17 3 3 21 17
40 31 19 15 50 41 67 58 18 17 35 31 38 31 10 0 115 109 115 119 0 5 -9 12
-19 16 -11 3 -33 18 -49 33 -16 15 -46 39 -66 52 -20 14 -36 28 -36 33 0 4 -6
7 -13 7 -7 0 -26 13 -42 30 -16 17 -36 30 -44 30 -9 0 -51 -34 -94 -75 -42
-41 -84 -75 -92 -75 -8 0 -15 -4 -15 -10 0 -5 -7 -10 -15 -10 -8 0 -15 -3 -15
-8 0 -4 -15 -13 -32 -20 -18 -7 -47 -19 -64 -27 -99 -43 -270 -44 -384 -3 -36
12 -66 26 -68 31 -2 4 -10 7 -17 7 -28 0 -150 133 -179 195 -16 33 -33 68 -38
77 -4 10 -8 34 -8 53 l0 35 665 0 665 0 6 26 c4 15 4 95 1 178 -5 138 -14 189
-38 238 -5 10 -9 27 -9 38 0 11 -3 20 -8 20 -4 0 -13 17 -19 39 -13 40 -82
164 -95 169 -5 2 -8 10 -8 18 0 7 -9 19 -20 26 -11 7 -20 16 -20 20 0 4 -24
30 -52 59 -57 56 -152 120 -233 158 -50 23 -58 27 -125 50 -36 13 -334 23
-400 14z m328 -332 c9 -5 38 -19 65 -31 26 -13 47 -27 47 -32 0 -4 6 -8 13 -8
19 0 97 -75 97 -94 0 -9 4 -16 9 -16 16 0 74 -134 79 -182 l5 -48 -477 0
c-439 0 -476 1 -476 17 0 37 67 213 81 213 5 0 9 6 9 13 0 17 79 97 97 97 7 0
13 4 13 8 0 8 54 37 115 63 11 5 38 10 60 13 58 6 244 -3 263 -13z"/>
<path d="M9027 3363 c-4 -3 -7 -395 -7 -870 l0 -863 200 0 200 0 0 665 0 665
344 0 c304 0 345 2 350 16 3 9 6 94 6 189 0 95 -3 180 -6 189 -6 14 -63 16
-543 16 -296 0 -541 -3 -544 -7z"/>
<path d="M12190 3345 c0 -14 4 -33 9 -43 12 -23 24 -53 56 -142 15 -41 31 -83
36 -92 5 -10 9 -27 9 -38 0 -11 5 -20 10 -20 6 0 10 -7 10 -15 0 -8 4 -23 9
-33 5 -9 13 -28 18 -42 6 -14 15 -36 20 -50 6 -14 23 -59 38 -100 15 -41 31
-83 36 -92 5 -10 9 -27 9 -38 0 -11 5 -20 10 -20 6 0 10 -9 10 -19 0 -11 5
-23 10 -26 6 -3 10 -13 10 -21 0 -8 8 -33 19 -57 10 -23 26 -64 36 -92 9 -27
20 -59 24 -70 32 -79 51 -126 62 -147 5 -10 9 -27 9 -38 0 -11 4 -20 8 -20 4
0 13 -17 19 -37 14 -47 40 -120 55 -153 6 -14 15 -36 21 -50 5 -14 13 -32 16
-40 4 -8 14 -36 22 -62 7 -27 17 -48 21 -48 4 0 8 -7 8 -15 0 -8 7 -33 16 -55
l16 -40 252 0 c138 0 256 4 261 8 6 4 16 25 23 47 15 45 22 64 46 118 9 21 16
44 16 52 0 8 9 30 20 50 11 20 20 44 20 55 0 11 5 20 10 20 6 0 10 9 10 19 0
11 5 23 10 26 6 3 10 15 10 26 0 10 4 27 9 37 17 33 58 137 72 185 7 26 17 47
21 47 4 0 8 11 8 25 0 14 4 25 8 25 4 0 14 21 21 48 8 26 18 54 22 62 17 33
59 149 59 164 0 9 5 16 10 16 6 0 10 11 10 25 0 14 5 25 10 25 6 0 10 9 10 20
0 11 4 28 9 38 5 9 14 29 20 45 6 15 15 37 21 50 14 32 40 106 53 150 6 20 15
37 19 37 4 0 8 6 8 14 0 11 10 40 50 141 4 11 15 36 24 56 8 20 17 51 18 70
l3 34 -185 3 c-187 3 -230 -4 -230 -34 0 -13 -44 -133 -61 -166 -5 -10 -9 -27
-9 -38 0 -11 -4 -20 -10 -20 -5 0 -10 -9 -10 -19 0 -11 -4 -23 -10 -26 -5 -3
-10 -17 -10 -31 0 -13 -4 -24 -10 -24 -5 0 -10 -7 -10 -15 0 -8 -4 -23 -9 -33
-5 -9 -17 -39 -26 -67 -9 -27 -21 -60 -26 -72 -5 -13 -13 -34 -19 -48 -24 -61
-33 -81 -41 -97 -5 -10 -9 -27 -9 -38 0 -11 -4 -20 -10 -20 -5 0 -10 -7 -10
-15 0 -13 -25 -84 -61 -172 -5 -13 -13 -34 -19 -48 -5 -14 -15 -37 -21 -52 -7
-16 -16 -38 -20 -50 -5 -13 -13 -33 -18 -45 -5 -13 -22 -58 -37 -100 -16 -43
-31 -78 -34 -78 -3 0 -11 15 -18 33 -8 17 -18 43 -24 57 -6 14 -15 35 -19 48
-15 36 -25 63 -53 135 -14 37 -26 74 -26 82 0 8 -4 15 -8 15 -4 0 -14 21 -21
48 -8 26 -18 54 -22 62 -17 37 -31 72 -74 190 -32 88 -46 125 -76 198 -28 66
-32 78 -74 192 -39 107 -61 163 -76 192 -5 10 -9 24 -9 32 0 23 -24 26 -221
26 l-189 0 0 -25z"/>
</g>
</svg>
